<svg width="496" height="496" viewBox="0 0 496 496" fill="none" xmlns="http://www.w3.org/2000/svg">
<path d="M496 248C496 111 385 0 248 0C111 0 0 111 0 248C0 385 111 496 248 496C385 496 496 385 496 248ZM48 248C48 137.5 137.5 48 248 48C358.5 48 448 137.5 448 248C448 358.5 358.5 448 248 448C137.5 448 48 358.5 48 248ZM120 268V228C120 221.4 125.4 216 132 216H248V149C248 138.3 260.9 133 268.5 140.5L367.5 239.5C372.2 244.2 372.2 251.8 367.5 256.5L268.5 355.5C260.9 363.1 248 357.7 248 347V280H132C125.4 280 120 274.6 120 268Z" fill="white"/>
</svg>
